<svg width="140" height="76" viewBox="0 0 140 76" fill="none" xmlns="http://www.w3.org/2000/svg">
<rect x="10.5" y="10.5" width="119" height="41" rx="3.5" fill="#DED6CC" stroke="black"/>
<path d="M117.242 60.0928L110.46 63.1646L104 66L117.242 38L130 66L125.478 64.1097L117.242 60.0928Z" fill="white" stroke="black"/>
<path d="M42.8936 36V25.8182H46.6223C47.3448 25.8182 47.9431 25.9375 48.417 26.1761C48.891 26.4115 49.2456 26.7313 49.481 27.1357C49.7163 27.5367 49.834 27.9891 49.834 28.4929C49.834 28.9171 49.7561 29.2751 49.6003 29.5668C49.4445 29.8551 49.2357 30.0871 48.9739 30.2628C48.7153 30.4351 48.4303 30.5611 48.1188 30.6406V30.7401C48.4568 30.7566 48.7866 30.866 49.1081 31.0682C49.4329 31.267 49.7014 31.5504 49.9135 31.9183C50.1256 32.2862 50.2317 32.7337 50.2317 33.2607C50.2317 33.781 50.109 34.2483 49.8638 34.6626C49.6218 35.0736 49.2473 35.4001 48.7402 35.642C48.2331 35.8807 47.5851 36 46.7963 36H42.8936ZM44.4298 34.6825H46.6472C47.383 34.6825 47.9099 34.54 48.2281 34.255C48.5463 33.9699 48.7054 33.6136 48.7054 33.1861C48.7054 32.8646 48.6242 32.5696 48.4618 32.3011C48.2994 32.0327 48.0674 31.8189 47.7658 31.6598C47.4675 31.5007 47.1128 31.4212 46.7018 31.4212H44.4298V34.6825ZM44.4298 30.223H46.4881C46.8328 30.223 47.1427 30.1567 47.4178 30.0241C47.6962 29.8916 47.9166 29.706 48.079 29.4673C48.2447 29.2254 48.3276 28.9403 48.3276 28.6122C48.3276 28.1913 48.1801 27.8383 47.8851 27.5533C47.5901 27.2682 47.1377 27.1257 46.5278 27.1257H44.4298V30.223ZM59.2918 32.8331V28.3636H60.7833V36H59.3216V34.6776H59.2421C59.0664 35.0852 58.7847 35.425 58.3969 35.6967C58.0125 35.9652 57.5335 36.0994 56.9601 36.0994C56.4696 36.0994 56.0354 35.9917 55.6576 35.7763C55.283 35.5575 54.9881 35.2344 54.7726 34.8068C54.5605 34.3793 54.4544 33.8506 54.4544 33.2209V28.3636H55.941V33.0419C55.941 33.5623 56.0851 33.9766 56.3735 34.2848C56.6618 34.593 57.0364 34.7472 57.4971 34.7472C57.7755 34.7472 58.0522 34.6776 58.3273 34.5384C58.6057 34.3991 58.8361 34.1887 59.0184 33.907C59.204 33.6252 59.2951 33.2673 59.2918 32.8331ZM68.8653 28.3636V29.5568H64.6941V28.3636H68.8653ZM65.8127 26.5341H67.2992V33.7578C67.2992 34.0462 67.3423 34.2633 67.4285 34.4091C67.5146 34.5516 67.6257 34.6494 67.7616 34.7024C67.9008 34.7521 68.0516 34.777 68.214 34.777C68.3333 34.777 68.4377 34.7687 68.5272 34.7521C68.6167 34.7356 68.6863 34.7223 68.736 34.7124L69.0045 35.9403C68.9183 35.9735 68.7956 36.0066 68.6366 36.0398C68.4775 36.0762 68.2786 36.0961 68.04 36.0994C67.6489 36.1061 67.2843 36.0365 66.9462 35.8906C66.6081 35.7448 66.3347 35.5194 66.1259 35.2145C65.9171 34.9096 65.8127 34.5268 65.8127 34.0661V26.5341ZM76.5942 28.3636V29.5568H72.4231V28.3636H76.5942ZM73.5417 26.5341H75.0282V33.7578C75.0282 34.0462 75.0713 34.2633 75.1574 34.4091C75.2436 34.5516 75.3547 34.6494 75.4905 34.7024C75.6297 34.7521 75.7806 34.777 75.943 34.777C76.0623 34.777 76.1667 34.7687 76.2562 34.7521C76.3457 34.7356 76.4153 34.7223 76.465 34.7124L76.7334 35.9403C76.6473 35.9735 76.5246 36.0066 76.3655 36.0398C76.2065 36.0762 76.0076 36.0961 75.769 36.0994C75.3779 36.1061 75.0133 36.0365 74.6752 35.8906C74.3371 35.7448 74.0637 35.5194 73.8549 35.2145C73.6461 34.9096 73.5417 34.5268 73.5417 34.0661V26.5341ZM83.8932 36.1541C83.1773 36.1541 82.5525 35.9901 82.0189 35.6619C81.4853 35.3338 81.071 34.8748 80.776 34.2848C80.481 33.6948 80.3335 33.0054 80.3335 32.2166C80.3335 31.4245 80.481 30.7318 80.776 30.1385C81.071 29.5452 81.4853 29.0845 82.0189 28.7564C82.5525 28.4283 83.1773 28.2642 83.8932 28.2642C84.6091 28.2642 85.2339 28.4283 85.7675 28.7564C86.3011 29.0845 86.7154 29.5452 87.0104 30.1385C87.3053 30.7318 87.4528 31.4245 87.4528 32.2166C87.4528 33.0054 87.3053 33.6948 87.0104 34.2848C86.7154 34.8748 86.3011 35.3338 85.7675 35.6619C85.2339 35.9901 84.6091 36.1541 83.8932 36.1541ZM83.8981 34.9062C84.3622 34.9062 84.7466 34.7836 85.0516 34.5384C85.3565 34.2931 85.5819 33.9666 85.7277 33.5589C85.8768 33.1513 85.9514 32.7022 85.9514 32.2116C85.9514 31.7244 85.8768 31.277 85.7277 30.8693C85.5819 30.4583 85.3565 30.1286 85.0516 29.88C84.7466 29.6314 84.3622 29.5071 83.8981 29.5071C83.4308 29.5071 83.043 29.6314 82.7348 29.88C82.4299 30.1286 82.2028 30.4583 82.0537 30.8693C81.9079 31.277 81.8349 31.7244 81.8349 32.2116C81.8349 32.7022 81.9079 33.1513 82.0537 33.5589C82.2028 33.9666 82.4299 34.2931 82.7348 34.5384C83.043 34.7836 83.4308 34.9062 83.8981 34.9062ZM93.1186 31.4659V36H91.6321V28.3636H93.0589V29.6065H93.1534C93.3291 29.2022 93.6042 28.8774 93.9787 28.6321C94.3565 28.3868 94.8321 28.2642 95.4055 28.2642C95.9259 28.2642 96.3816 28.3736 96.7727 28.5923C97.1638 28.8078 97.4671 29.1293 97.6825 29.5568C97.898 29.9844 98.0057 30.513 98.0057 31.1428V36H96.5192V31.3217C96.5192 30.7682 96.375 30.3357 96.0866 30.0241C95.7983 29.7093 95.4022 29.5518 94.8984 29.5518C94.5537 29.5518 94.2472 29.6264 93.9787 29.7756C93.7135 29.9247 93.5031 30.1435 93.3473 30.4318C93.1948 30.7169 93.1186 31.0616 93.1186 31.4659Z" fill="#333333"/>
</svg>
