<svg width="125" height="125" viewBox="0 0 125 125" fill="none" xmlns="http://www.w3.org/2000/svg">
<path d="M10 15.25C10 12.3505 12.3505 10 15.25 10H31C33.8995 10 36.25 12.3505 36.25 15.25V31C36.25 33.8995 33.8995 36.25 31 36.25H15.25C12.3505 36.25 10 33.8995 10 31V15.25Z" fill="#DED6CC"/>
<path d="M10 54.625C10 51.7255 12.3505 49.375 15.25 49.375H31C33.8995 49.375 36.25 51.7255 36.25 54.625V70.375C36.25 73.2745 33.8995 75.625 31 75.625H15.25C12.3505 75.625 10 73.2745 10 70.375V54.625Z" fill="#DED6CC"/>
<path d="M10 94C10 91.1005 12.3505 88.75 15.25 88.75H31C33.8995 88.75 36.25 91.1005 36.25 94V109.75C36.25 112.649 33.8995 115 31 115H15.25C12.3505 115 10 112.649 10 109.75V94Z" fill="#DED6CC"/>
<path d="M49.375 15.25C49.375 12.3505 51.7255 10 54.625 10H70.375C73.2745 10 75.625 12.3505 75.625 15.25V31C75.625 33.8995 73.2745 36.25 70.375 36.25H54.625C51.7255 36.25 49.375 33.8995 49.375 31V15.25Z" fill="#DED6CC"/>
<path d="M49.375 54.625C49.375 51.7255 51.7255 49.375 54.625 49.375H70.375C73.2745 49.375 75.625 51.7255 75.625 54.625V70.375C75.625 73.2745 73.2745 75.625 70.375 75.625H54.625C51.7255 75.625 49.375 73.2745 49.375 70.375V54.625Z" fill="#DED6CC"/>
<path d="M49.375 94C49.375 91.1005 51.7255 88.75 54.625 88.75H70.375C73.2745 88.75 75.625 91.1005 75.625 94V109.75C75.625 112.649 73.2745 115 70.375 115H54.625C51.7255 115 49.375 112.649 49.375 109.75V94Z" fill="#DED6CC"/>
<path d="M88.75 15.25C88.75 12.3505 91.1005 10 94 10H109.75C112.649 10 115 12.3505 115 15.25V31C115 33.8995 112.649 36.25 109.75 36.25H94C91.1005 36.25 88.75 33.8995 88.75 31V15.25Z" fill="#DED6CC"/>
<path d="M88.75 54.625C88.75 51.7255 91.1005 49.375 94 49.375H109.75C112.649 49.375 115 51.7255 115 54.625V70.375C115 73.2745 112.649 75.625 109.75 75.625H94C91.1005 75.625 88.75 73.2745 88.75 70.375V54.625Z" fill="#DED6CC"/>
<path d="M88.75 94C88.75 91.1005 91.1005 88.75 94 88.75H109.75C112.649 88.75 115 91.1005 115 94V109.75C115 112.649 112.649 115 109.75 115H94C91.1005 115 88.75 112.649 88.75 109.75V94Z" fill="#DED6CC"/>
<path d="M36.25 22.8625H49.375M36.25 101.612H49.375M23.3875 36.25V49.375M62.7625 36.25V49.375M102.137 36.25V49.375M62.7625 75.625V88.75M102.137 75.625V88.75M23.3875 75.625V88.75M75.625 22.8625H88.75M75.625 101.612H88.75M15.25 36.25H31C33.8995 36.25 36.25 33.8995 36.25 31V15.25C36.25 12.3505 33.8995 10 31 10H15.25C12.3505 10 10 12.3505 10 15.25V31C10 33.8995 12.3505 36.25 15.25 36.25ZM15.25 75.625H31C33.8995 75.625 36.25 73.2745 36.25 70.375V54.625C36.25 51.7255 33.8995 49.375 31 49.375H15.25C12.3505 49.375 10 51.7255 10 54.625V70.375C10 73.2745 12.3505 75.625 15.25 75.625ZM15.25 115H31C33.8995 115 36.25 112.649 36.25 109.75V94C36.25 91.1005 33.8995 88.75 31 88.75H15.25C12.3505 88.75 10 91.1005 10 94V109.75C10 112.649 12.3505 115 15.25 115ZM54.625 36.25H70.375C73.2745 36.25 75.625 33.8995 75.625 31V15.25C75.625 12.3505 73.2745 10 70.375 10H54.625C51.7255 10 49.375 12.3505 49.375 15.25V31C49.375 33.8995 51.7255 36.25 54.625 36.25ZM54.625 75.625H70.375C73.2745 75.625 75.625 73.2745 75.625 70.375V54.625C75.625 51.7255 73.2745 49.375 70.375 49.375H54.625C51.7255 49.375 49.375 51.7255 49.375 54.625V70.375C49.375 73.2745 51.7255 75.625 54.625 75.625ZM54.625 115H70.375C73.2745 115 75.625 112.649 75.625 109.75V94C75.625 91.1005 73.2745 88.75 70.375 88.75H54.625C51.7255 88.75 49.375 91.1005 49.375 94V109.75C49.375 112.649 51.7255 115 54.625 115ZM94 36.25H109.75C112.649 36.25 115 33.8995 115 31V15.25C115 12.3505 112.649 10 109.75 10H94C91.1005 10 88.75 12.3505 88.75 15.25V31C88.75 33.8995 91.1005 36.25 94 36.25ZM94 75.625H109.75C112.649 75.625 115 73.2745 115 70.375V54.625C115 51.7255 112.649 49.375 109.75 49.375H94C91.1005 49.375 88.75 51.7255 88.75 54.625V70.375C88.75 73.2745 91.1005 75.625 94 75.625ZM94 115H109.75C112.649 115 115 112.649 115 109.75V94C115 91.1005 112.649 88.75 109.75 88.75H94C91.1005 88.75 88.75 91.1005 88.75 94V109.75C88.75 112.649 91.1005 115 94 115Z" stroke="black"/>
</svg>
